<svg id="Layer_1" enable-background="new 0 0 512 512" height="512" viewBox="0 0 512 512" width="512" xmlns="http://www.w3.org/2000/svg"><g><path fill="#5a5a5a" d="m348.624 352.884c9.447 0 17.133-7.686 17.133-17.133s-7.686-17.133-17.133-17.133-17.134 7.686-17.134 17.133 7.687 17.133 17.134 17.133z"/><path fill="#5a5a5a" d="m296.167 311.167c13.877 0 25.166-11.29 25.166-25.167s-11.289-25.167-25.166-25.167-25.167 11.29-25.167 25.167 11.29 25.167 25.167 25.167z"/><path fill="#5a5a5a" d="m241 286c0-13.877-11.29-25.167-25.167-25.167s-25.166 11.29-25.166 25.167 11.289 25.167 25.166 25.167 25.167-11.29 25.167-25.167z"/><path fill="#5a5a5a" d="m163.375 318.617c-9.447 0-17.133 7.686-17.133 17.133s7.686 17.133 17.133 17.133 17.134-7.686 17.134-17.133-7.687-17.133-17.134-17.133z"/><path fill="#5a5a5a" d="m48.2 286.439v210.561c0 8.284 6.716 15 15 15h385.6c8.284 0 15-6.716 15-15v-210.561l-207.8-207.799zm247.967-55.606c30.419 0 55.166 24.748 55.166 55.167 0 .904-.025 1.802-.068 2.695 24.765 1.375 44.492 21.952 44.492 47.055 0 25.989-21.144 47.133-47.133 47.133-4.653 0-9.146-.688-13.395-1.95.009.49.037.975.037 1.466 0 43.708-35.559 79.267-79.267 79.267s-79.267-35.559-79.267-79.267c0-.492.028-.977.037-1.467-4.249 1.262-8.742 1.95-13.396 1.95-25.989 0-47.133-21.144-47.133-47.133 0-25.103 19.728-45.681 44.493-47.055-.043-.893-.068-1.792-.068-2.695 0-30.419 24.747-55.167 55.166-55.167 15.821 0 30.098 6.705 40.167 17.41 10.071-10.704 24.348-17.409 40.169-17.409z"/><circle fill="#5a5a5a" cx="256" cy="382.4" r="49.267"/><path fill="#5a5a5a" d="m463.8 15c0-8.284-6.716-15-15-15h-64.267c-8.284 0-15 6.716-15 15v49.894l94.267 94.267z"/><path fill="#5a5a5a" d="m507.606 245.394-241-241c-5.857-5.858-15.355-5.858-21.213 0l-241 241c-5.858 5.858-5.858 15.355 0 21.213 5.857 5.858 15.355 5.858 21.213 0l230.394-230.393 230.393 230.393c2.929 2.929 6.768 4.393 10.607 4.393s7.678-1.464 10.606-4.394c5.859-5.857 5.859-15.354 0-21.212z"/></g></svg>