<?xml version="1.0" encoding="iso-8859-1"?>
<!-- Generator: Adobe Illustrator 19.0.0, SVG Export Plug-In . SVG Version: 6.00 Build 0)  -->
<svg version="1.1" id="Capa_1" xmlns="http://www.w3.org/2000/svg" xmlns:xlink="http://www.w3.org/1999/xlink" x="0px" y="0px"
	 viewBox="0 0 374.4 374.4" style="enable-background:new 0 0 374.4 374.4;" xml:space="preserve">
<g>
	<g>
		<path fill="#5a5a5a" d="M37.6,202.462l-21.6-12l-16-8.8v119.2c0,11.2,2.4,21.6,7.2,31.2l13.6-9.6l99.2-73.6L37.6,202.462z"/>
	</g>
</g>
<g>
	<g>
		<path fill="#5a5a5a" d="M343.2,335.262l-108.8-80.8l-47.2-32l-47.2,32.8l-108.8,80l-13.6,9.6c11.2,9.6,26.4,15.2,41.6,14.4h256
			c15.2,0.8,30.4-4.8,41.6-14.4L343.2,335.262z"/>
	</g>
</g>
<g>
	<g>
		<path fill="#5a5a5a" d="M192,16.862c-3.2-2.4-7.2-2.4-10.4,0l-64.8,49.6h140L192,16.862z"/>
	</g>
</g>
<g>
	<g>
		<path fill="#5a5a5a" d="M4,154.462c-1.6,1.6-2.4,3.2-3.2,4.8c-0.8,1.6-0.8,2.4-0.8,4l16,8.8l16.8,9.6v-50.4L4,154.462z"/>
	</g>
</g>
<g>
	<g>
		<path fill="#5a5a5a" d="M357.6,191.262l-104,57.6l99.2,72.8l13.6,9.6c4.8-9.6,7.2-20,7.2-31.2v-118.4L357.6,191.262z"/>
	</g>
</g>
<g>
	<g>
		<path fill="#5a5a5a" d="M50.4,83.262v107.2l84.8,48l48-32.8c2.4-1.6,6.4-1.6,9.6,0l47.2,32.8l84.8-48v-107.2H50.4z"/>
	</g>
</g>
<g>
	<g>
		<path fill="#5a5a5a" d="M373.6,158.462c0-1.6-1.6-3.2-3.2-4.8l-28.8-22.4v49.6l16.8-9.6l16-8C374.4,161.662,373.6,160.062,373.6,158.462z"/>
	</g>
</g>
<g>
</g>
<g>
</g>
<g>
</g>
<g>
</g>
<g>
</g>
<g>
</g>
<g>
</g>
<g>
</g>
<g>
</g>
<g>
</g>
<g>
</g>
<g>
</g>
<g>
</g>
<g>
</g>
<g>
</g>
</svg>
