<svg id="Layer_1" enable-background="new 0 0 480 480" height="512" viewBox="0 0 480 480" width="512" xmlns="http://www.w3.org/2000/svg"><path fill="#5a5a5a" d="m448 82h-294.005c-4.418 0-8 3.582-8 8v24.659c0 4.261-3.215 7.981-7.467 8.257-4.659.302-8.533-3.388-8.533-7.983v-24.933c0-4.418-3.582-8-8-8h-89.995c-17.673 0-32 14.327-32 32v44.06c0 11.84 6.39 22.6 16.69 28.1 43.031 22.951 43.023 84.733 0 107.68-10.3 5.5-16.69 16.26-16.69 28.1v44.06c0 17.673 14.327 32 32 32h89.997c4.418 0 8-3.582 8-8v-24.663c0-4.261 3.215-7.981 7.467-8.257 4.659-.302 8.533 3.388 8.533 7.983v24.937c0 4.418 3.582 8 8 8h294.003c17.673 0 32-14.327 32-32v-252c0-17.673-14.327-32-32-32zm-302 222.615c0 4.418-3.582 8-8 8s-8-3.582-8-8v-31.317c0-4.418 3.582-8 8-8s8 3.582 8 8zm0-97.913c0 4.418-3.582 8-8 8s-8-3.582-8-8v-31.317c0-4.418 3.582-8 8-8s8 3.582 8 8zm91-5.869c0-8.73 7.103-15.833 15.833-15.833s15.834 7.103 15.834 15.833-7.104 15.834-15.834 15.834-15.833-7.104-15.833-15.834zm7.565 86.602c-3.124-3.125-3.124-8.189 0-11.314l78.333-78.333c3.125-3.123 8.189-3.123 11.314 0 3.124 3.125 3.124 8.189 0 11.314l-78.333 78.333c-3.125 3.124-8.188 3.123-11.314 0zm86.602 7.565c-8.73 0-15.834-7.103-15.834-15.833s7.104-15.834 15.834-15.834 15.833 7.104 15.833 15.834-7.103 15.833-15.833 15.833z"/></svg>