<svg id="Capa_1" enable-background="new 0 0 511.956 511.956" height="512" viewBox="0 0 511.956 511.956" width="512" xmlns="http://www.w3.org/2000/svg"><g><path fill="#5a5a5a" d="m315.956 91.03c8.291 0 15-6.709 15-15v-61c0-8.291-6.709-15-15-15s-15 6.709-15 15v61c0 8.291 6.709 15 15 15z"/><path fill="#5a5a5a" d="m369.247 119.447c7.48 3.715 16.436.652 20.127-6.709l20.698-41.382 15.278 15.278c3.398 3.413 8.232 5.01 13.008 4.204 4.761-.776 8.862-3.794 11.016-8.101l31-61c3.706-7.412.703-16.421-6.709-20.127-7.427-3.677-16.406-.703-20.127 6.709l-21.698 42.383-15.278-15.278c-3.398-3.398-8.203-4.937-13.008-4.204-4.761.776-8.862 3.794-11.016 8.101l-30 60c-3.706 7.412-.703 16.42 6.709 20.126z"/><path fill="#5a5a5a" d="m447.514 126.464c-2.695-3.252-6.636-5.215-10.854-5.42-4.175-.132-8.335 1.392-11.309 4.38l-30 30c-5.859 5.859-5.859 15.352 0 21.211s15.352 5.859 21.211 0l18.354-18.354 19.482 23.525c6.011 7.244 17.108 7.24 23.115 0l31-37.211c5.273-6.372 4.395-15.835-1.992-21.123-6.372-5.273-15.82-4.38-21.123 1.992l-19.442 23.266z"/><path fill="#5a5a5a" d="m43.14 446.199c29.231 29.262 76.714 29.372 106.055 0l31.829-31.818-127.279-127.278-31.816 31.816c-29.238 29.238-29.238 76.831 0 106.069z"/><path fill="#5a5a5a" d="m364.635 299.01-195.522-195.522c-18.19 60.24-51.169 116.378-94.428 162.133l127.822 127.822c45.757-43.271 101.91-76.254 162.128-94.433z"/><path fill="#5a5a5a" d="m440.219 279.438c5.244-1.304 9.375-5.332 10.825-10.547 1.436-5.2-.029-10.781-3.853-14.605l-233.35-233.35c-3.823-3.838-9.434-5.317-14.604-3.853-5.215 1.45-9.243 5.581-10.547 10.825l-10.547 42.188 219.886 219.886z"/><path fill="#5a5a5a" d="m215.435 422.396-45.029 45.015c-3.598 3.604-7.63 6.57-11.631 9.573l30.556 30.549c5.859 5.859 15.352 5.859 21.211 0l42.422-42.422c5.859-5.859 5.859-15.352 0-21.211l-28.973-28.973c-2.765 2.602-5.867 4.779-8.556 7.469z"/></g></svg>