<?xml version="1.0" encoding="iso-8859-1"?>
<!-- Generator: Adobe Illustrator 19.0.0, SVG Export Plug-In . SVG Version: 6.00 Build 0)  -->
<svg version="1.1" id="Capa_1" xmlns="http://www.w3.org/2000/svg" xmlns:xlink="http://www.w3.org/1999/xlink" x="0px" y="0px"
	 viewBox="0 0 468.776 468.776" style="enable-background:new 0 0 468.776 468.776;" xml:space="preserve">
<g>
	<g>
		<rect x="106.469" y="426.109" width="42.667" height="42.667"/>
	</g>
</g>
<g>
	<g>
		<rect x="319.802" y="426.109" width="42.667" height="42.667"/>
	</g>
</g>
<g>
	<g>
		<path d="M150.522,342.407c-1.014,0-2.722-1.504-2.852-2.523L109.446,39.798C106.606,17.499,86.8,0,64.306,0h-43.17v42.667h43.17
			c0.985,0,2.686,1.503,2.816,2.523l38.224,300.086c2.844,22.331,22.687,39.798,45.177,39.798h211.946v-42.667H150.522z"/>
	</g>
</g>
<g>
	<g>
		<path d="M393.121,84.893H81.964v42.667h311.157c9.633,0,13.618,5.173,11.175,14.428l-23.663,89.624
			c-3.543,13.419-18.996,25.32-32.853,25.32H191.802v42.667H347.78c33.225,0,65.618-24.947,74.106-57.095l23.663-89.624
			C455.138,116.562,430.743,84.893,393.121,84.893z"/>
	</g>
</g>
<g>
</g>
<g>
</g>
<g>
</g>
<g>
</g>
<g>
</g>
<g>
</g>
<g>
</g>
<g>
</g>
<g>
</g>
<g>
</g>
<g>
</g>
<g>
</g>
<g>
</g>
<g>
</g>
<g>
</g>
</svg>
